<svg id="brush" xmlns="http://www.w3.org/2000/svg" viewBox="-1.091 -2.182 24 29.455" xml:space="preserve" width="24" height="29.455"><path d="M19.773 4.895c0 .525-.184 1.03-.525 1.425l-6.791 7.923a4.4 4.4 0 0 0-.811-1.152 4.5 4.5 0 0 0-1.091-.866 4.6 4.6 0 0 0-1.295-.511l5.399-8.639a2.17 2.17 0 0 1 1.855-1.03h.075c.436 0 .852.13 1.214.368l.995.661c.614.409.975 1.091.975 1.82m-8.182 11.47a3.41 3.41 0 0 1-3.409 3.409H2.727c-.375 0-.682-.307-.682-.682s.307-.682.682-.682a2.05 2.05 0 0 0 2.045-2.045 3.41 3.41 0 0 1 6.818 0"/></svg>
