<svg id="bucket" xmlns="http://www.w3.org/2000/svg" viewBox="-1.091 -2.182 24 29.455" width="24" height="29.455"><path d="M18.865 15.288a1.02 1.02 0 0 0-.852-.457c-.343 0-.661.17-.851.457-1.059 1.591-1.597 2.735-1.597 3.399 0 1.35 1.098 2.449 2.448 2.449s2.449-1.099 2.449-2.449c0-.664-.537-1.808-1.597-3.399m-.42-7.445c-.596-1.174-1.609-2.506-2.853-3.75s-2.576-2.257-3.75-2.853C10.538.579 9.575.502 9.045 1.032l-.562.62c-3.964-.193-6.948.938-7.118 2.722-.092.961.656 1.92 2.107 2.698 1.532.805 3.393 1.265 5.226 1.447a.34.34 0 0 1 .307.372.344.344 0 0 1-.341.31c-2.125-.21-3.989-.717-5.468-1.565a203 203 0 0 1-1.369 1.518 1.7 1.7 0 0 0-.273 1.893 15.3 15.3 0 0 0 3.036 4.228 15.3 15.3 0 0 0 4.036 2.85 1.75 1.75 0 0 0 .761.177 1.7 1.7 0 0 0 1.14-.441l8.138-7.232c.518-.518.442-1.482-.219-2.786zM2.043 4.438c.121-1.267 2.679-2.17 5.844-2.126a87 87 0 0 0-.626.703h-.002C6.094 4.327 5.22 5.343 4.094 6.618c-.101-.049-.206-.098-.303-.149-1.175-.631-1.814-1.371-1.75-2.032zm15.356 4.924a.34.34 0 0 1-.366.076c-.422-.165-1.952-.857-3.942-2.847s-2.683-3.52-2.847-3.942a.34.34 0 0 1 .076-.366.34.34 0 0 1 .365-.077c.421.165 1.951.857 3.942 2.847s2.683 3.521 2.847 3.942a.34.34 0 0 1-.076.365z"/></svg>
