<svg id="circles" xmlns="http://www.w3.org/2000/svg" viewBox="0 0 24 30" width="24" height="30"><path d="M10 5.25c-.55 0-1.08.05-1.6.15-.8.14-1.56.4-2.26.74-2.9 1.44-4.89 4.42-4.89 7.86 0 4.83 3.92 8.75 8.75 8.75 3.44 0 6.42-1.99 7.86-4.89.34-.7.6-1.46.74-2.26.1-.52.15-1.05.15-1.6 0-4.83-3.92-8.75-8.75-8.75M17.25 14c0 .96-.19 1.88-.53 2.72-.61.25-1.27.42-1.96.49-.25.03-.5.04-.76.04q-.255 0-.51-.03l3.73-3.73c.01.17.03.34.03.51m-5.53 2.88c-.84-.28-1.61-.7-2.28-1.25l6.19-6.19c.55.67.97 1.45 1.25 2.28zm2.85-8.5-6.19 6.19c-.55-.67-.97-1.45-1.25-2.28l5.16-5.16c.84.28 1.61.7 2.28 1.25M10 6.76q.255 0 .51.03l-3.73 3.73c-.01-.17-.03-.34-.03-.51 0-.26.01-.51.04-.76.07-.69.24-1.35.49-1.96.84-.34 1.76-.53 2.72-.53m0 14.5c-4 0-7.25-3.25-7.25-7.25 0-2.25 1.03-4.27 2.65-5.6a8.7 8.7 0 0 0-.12 2.33A8.75 8.75 0 0 0 14 18.76c.55 0 1.08-.05 1.6-.15a7.23 7.23 0 0 1-5.6 2.65m9.96-4.86c.18-.77.29-1.57.29-2.39 0-5.65-4.6-10.25-10.25-10.25-.82 0-1.62.11-2.39.29 1.6-1.71 3.87-2.79 6.39-2.79 4.83 0 8.75 3.92 8.75 8.75 0 2.52-1.08 4.79-2.79 6.39"/></svg>
