<svg id="collab" xmlns="http://www.w3.org/2000/svg" data-name="Layer 1" viewBox="0 0 24 30" width="24" height="30"><path d="m20.014 6.909-1.434-.364-1.123-1.122-.364-1.435L3.988 17.093l1.434.364 1.123 1.123.364 1.435zm-.877-2.566.523.523.936.238.07.022.636-1.97a.361.361 0 0 0-.455-.455l-1.968.636.021.072ZM4.865 19.66l-.523-.523-.936-.238-.071-.021-.636 1.968a.362.362 0 0 0 .455.455l1.97-.636-.022-.07ZM8.696 6.375l-.002-.002a.986.986 0 0 0-1.404-.009l-4.984 4.988.059-8.986 13.756-.072a.986.986 0 0 0 .981-.992.986.986 0 0 0-.992-.981L1.378.399a.987.987 0 0 0-.98.98L.317 13.742a.986.986 0 0 0 1.685.702L8.687 7.76a.986.986 0 0 0 .009-1.386m14.572 3.075a.99.99 0 0 0-1.269.107l-6.694 6.694a.986.986 0 1 0 1.395 1.395l4.995-4.995-.059 8.985-13.756.071a.986.986 0 0 0-.981.992.986.986 0 0 0 .991.981l14.731-.076a.986.986 0 0 0 .981-.98l.081-12.326a1.02 1.02 0 0 0-.414-.848"/></svg>
