<svg id="darkmode" xmlns="http://www.w3.org/2000/svg" viewBox="0 0 24 30" width="24" height="30"><path d="m1.594 12.782 2.537 1.944a.99.99 0 0 1 .377.912l-.428 3.166a.99.99 0 0 0 1.116 1.116l3.166-.42a.99.99 0 0 1 .912.377l1.944 2.537a.984.984 0 0 0 1.565 0l1.944-2.537a.99.99 0 0 1 .912-.377l3.165.42a.99.99 0 0 0 1.116-1.116l-.427-3.166a.99.99 0 0 1 .377-.912l2.537-1.944a.984.984 0 0 0 0-1.565L19.87 9.273a.99.99 0 0 1-.377-.912l.427-3.165a.99.99 0 0 0-1.116-1.116l-3.166.427a.99.99 0 0 1-.912-.377l-1.944-2.537a.984.984 0 0 0-1.565 0L9.273 4.13a.99.99 0 0 1-.912.377L5.196 4.08A.99.99 0 0 0 4.08 5.196l.42 3.166a.99.99 0 0 1-.377.912l-2.53 1.944a.984.984 0 0 0 0 1.565M9.6 6.458a6.038 6.038 0 1 1 0 11.083 6.038 6.038 0 0 0 0-11.083" data-name="Layer 2"/></svg>
