<svg id="dropper" xmlns="http://www.w3.org/2000/svg" viewBox="-1.091 -2.182 24 29.455" width="24" height="29.455"><path d="m20.079 6.859-4.711 4.705.559.559a.68.68 0 0 1 0 .962.69.69 0 0 1-.968 0L8.734 6.859a.687.687 0 0 1 0-.968.68.68 0 0 1 .962 0l.559.559 4.704-4.711A3.62 3.62 0 0 1 17.521.674a3.62 3.62 0 0 1 2.563 1.06 3.62 3.62 0 0 1 1.061 2.563 3.62 3.62 0 0 1-1.065 2.562zm-7.752 6.096H5.673l2.986-2.986a.68.68 0 0 0-.961-.961l-5.189 5.187a3.62 3.62 0 0 0-.954 3.417 8 8 0 0 1-.348.886c-.43.982-.798 1.827-.259 2.373a.95.95 0 0 0 .689.266 4.8 4.8 0 0 0 1.677-.525 9 9 0 0 1 .893-.348 3.6 3.6 0 0 0 3.416-.955l5.189-5.188a.68.68 0 0 0 .15-.743.69.69 0 0 0-.634-.423z"/></svg>
