<svg id="font" xmlns="http://www.w3.org/2000/svg" viewBox="0 0 24 30" width="24" height="30"><path d="M20.25 5.25H21V6h-.75zm-12 0H9V6h-.75zm-1.5 3h.751V9H6.75zm1.5-1.5H9v.751h-.75zm12 0H21v.751h-.75zm-15 1.5H6V9h-.75zm1.5 4.125h.751v.75H6.75zm-1.5 0H6v.75h-.75zM6.75 21h.751v.75H6.75zm-1.5 0H6v.75h-.75zm1.5 1.5h.751v.75H6.75zm1.5 0H9v.75h-.75zM6 22.5v.75H4.875a.374.374 0 0 0 .375-.375V22.5ZM8.25 21H9v.75h-.75zm1.5 1.5h.751v.75H9.75zm0-1.5h.751v.75H9.75z"/><path d="M22.5 4.5h-.75V2.625H21V4.5h-1.5V2.625h-.75V4.5h-1.5V2.625h-.75V4.5H15V2.625h-.75V4.5h-1.5V2.625H12V4.5h-1.5V2.625h-.75V4.5H8.249V2.625h-.75V4.5h-1.5V2.625h-.75V4.5h-.375a.374.374 0 0 0-.375.375v.375H2.625V6H4.5v1.5H2.625v.75H4.5v1.5H2.625v.75H4.5V12H2.625v.75H4.5v1.5H2.625V15H4.5v1.5H2.625v.75H4.5v1.5H2.625v.75H4.5V21H2.625v.75H4.5v.75h-3v-21h21Z"/><path d="M21 8.625v4.125a.374.374 0 0 1-.375.375h-1.5a.374.374 0 0 1-.375-.375 1.126 1.126 0 0 0-1.125-1.125H16.5v8.25A1.126 1.126 0 0 0 17.625 21a.374.374 0 0 1 .375.375v1.5a.374.374 0 0 1-.375.375h-5.999a.374.374 0 0 1-.375-.375v-1.5a.374.374 0 0 1 .375-.375 1.126 1.126 0 0 0 1.125-1.125v-8.25h-1.125a1.126 1.126 0 0 0-1.125 1.125.374.374 0 0 1-.375.375H8.624a.374.374 0 0 1-.375-.375V8.625a.374.374 0 0 1 .375-.375h12a.374.374 0 0 1 .375.375"/></svg>
