<svg id="mirror-v" xmlns="http://www.w3.org/2000/svg" viewBox="0 0 24 30" width="24" height="30"><path d="M3.96 12.75c-.41 0-.75-.34-.75-.75s.34-.75.75-.75h8c.41 0 .75.34.75.75s-.34.75-.75.75zm9-11.5h-10c-.29 0-.56.17-.68.43s-.08.57.1.8l5 6a.76.76 0 0 0 1.16 0l5-6a.73.73 0 0 0 .1-.8.75.75 0 0 0-.68-.43M8.54 15.52c-.29-.34-.87-.34-1.15 0l-5 6a.73.73 0 0 0-.1.8c.12.26.39.43.68.43h10c.29 0 .56-.17.68-.43s.08-.57-.1-.8l-5-6Zm13.23 1.38a.75.75 0 0 0-.93-.52l-1.36.38c1.65-3.29 1.53-7.29-.45-10.49a.747.747 0 1 0-1.27.79c1.72 2.77 1.8 6.26.34 9.1l-.44-1.56a.75.75 0 0 0-.92-.52c-.4.11-.63.53-.52.93l.9 3.2c.05.19.18.35.36.45.11.06.24.1.37.1.07 0 .14 0 .2-.03l3.2-.9c.4-.11.63-.53.52-.93"/></svg>
