<svg id="mirror" xmlns="http://www.w3.org/2000/svg" viewBox="0 0 24 30"><path d="M12.75 2v2c0 .41-.34.75-.75.75s-.75-.34-.75-.75V2c0-.41.34-.75.75-.75s.75.34.75.75M12 12.85c-.41 0-.75.34-.75.75v3.2c0 .41.34.75.75.75s.75-.34.75-.75v-3.2c0-.41-.34-.75-.75-.75m0-6.4c-.41 0-.75.34-.75.75v3.2c0 .41.34.75.75.75s.75-.34.75-.75V7.2c0-.41-.34-.75-.75-.75m0 12.8c-.41 0-.75.34-.75.75v2c0 .41.34.75.75.75s.75-.34.75-.75v-2c0-.41-.34-.75-.75-.75M22.32 6.32a.78.78 0 0 0-.8.1l-6 5a.76.76 0 0 0 0 1.16l6 5c.14.11.31.17.48.17.11 0 .22-.02.32-.07.26-.12.43-.39.43-.68V7c0-.29-.17-.56-.43-.68m-19.84.1a.73.73 0 0 0-.8-.1c-.26.12-.43.39-.43.68v10c0 .29.17.56.43.68.1.05.21.07.32.07.17 0 .34-.06.48-.17l6-5a.76.76 0 0 0 0-1.16z"/></svg>
