<svg id="mirror-h" xmlns="http://www.w3.org/2000/svg" viewBox="0 0 24 30" width="24" height="30"><path d="M12.75 12.04v8c0 .41-.34.75-.75.75s-.75-.34-.75-.75v-8c0-.41.34-.75.75-.75s.75.34.75.75M2.48 10.46a.73.73 0 0 0-.8-.1c-.26.12-.43.39-.43.68v10c0 .29.17.56.43.68.1.05.21.07.32.07.17 0 .34-.06.48-.17l6-5a.76.76 0 0 0 0-1.16zm19.84-.1a.78.78 0 0 0-.8.1l-6 5a.76.76 0 0 0 0 1.16l6 5c.14.11.31.17.48.17.11 0 .22-.02.32-.07.26-.12.43-.39.43-.68v-10c0-.29-.17-.56-.43-.68m-3.59-4.41-.9-3.2a.75.75 0 0 0-.92-.52c-.4.11-.63.53-.52.92l.38 1.36c-3.29-1.65-7.29-1.53-10.49.45a.747.747 0 1 0 .79 1.27c2.77-1.72 6.24-1.79 9.09-.34l-1.55.44a.755.755 0 0 0 .2 1.48c.07 0 .14 0 .2-.03l3.2-.9c.4-.11.63-.53.52-.92Z"/></svg>
