<svg id="move" xmlns="http://www.w3.org/2000/svg" viewBox="0 0 24 30" width="24" height="30"><path d="M8.43 18.75H4.65c-.41 0-.75-.34-.75-.75s.34-.75.75-.75h3.78c.41 0 .75.34.75.75s-.34.75-.75.75m-6.43-2c-.41 0-.75-.33-.75-.75v-3.78c0-.41.34-.75.75-.75s.75.34.75.75V16c0 .41-.34.75-.75.75m0-7.57c-.41 0-.75-.34-.75-.75V4.65c0-.41.34-.75.75-.75s.75.34.75.75v3.78c0 .41-.34.75-.75.75m16-.67c-.41 0-.75-.34-.75-.75V3.99c0-.41.34-.76.75-.76s.75.33.75.74v3.78c0 .41-.34.75-.75.75Zm-2.66-5.77h-3.78c-.41 0-.75-.34-.75-.75s.34-.75.75-.75h3.78c.41 0 .75.34.75.75s-.34.75-.75.75m-7.57 0H4c-.41 0-.76-.34-.76-.75s.33-.75.74-.75h3.78c.41 0 .75.34.75.75s-.34.75-.75.75Zm14.42 12.53L11.74 8.88c-.42-.26-.94-.23-1.33.08-.39.3-.54.81-.4 1.28l3.67 11.69c.15.46.55.78 1.04.82h.08c.45 0 .86-.26 1.06-.67l1.81-3.81 4.14-.84c.48-.1.84-.47.92-.95s-.13-.95-.54-1.2Z"/></svg>
