<svg xmlns="http://www.w3.org/2000/svg" viewBox="0 0 12.699 15.874"><path style="color:#000" d="M165.847 164.454a1.4 1.4 0 0 0-.646.157c-.323.173-.567.482-.74.885a3.5 3.5 0 0 1-.719 1.034c-.331.322-.722.548-1.125.572a.397.397 0 0 0 .024.792h.023l1.7.002c.689.001 1.326-.103 1.855-.349s.958-.663 1.111-1.229a1.52 1.52 0 0 0-.114-1.093 1.4 1.4 0 0 0-.966-.729 2 2 0 0 0-.403-.042" transform="translate(-158.51 -157.252)"/><path style="color:#000" d="M169.21 159.593a.94.94 0 0 0-.755.392 60 60 0 0 0-1.453 1.93 32 32 0 0 0-1.201 1.775c-.132.213-.027.357.223.375q.158.013.308.043a1.83 1.83 0 0 1 1.307 1.087c.083.201.218.237.336.053q.095-.15.194-.313a20 20 0 0 0 .922-1.768 43 43 0 0 0 1.016-2.366l.012-.039a.934.934 0 0 0-.909-1.17m-6.272 2.908-1.665 1.074a.397.397 0 0 0-.119.549.397.397 0 0 0 .55.117l1.38-.89.871.972a.397.397 0 0 0 .56.031l.612-.55a.397.397 0 0 0 .03-.56.397.397 0 0 0-.561-.03l-.317.285-.83-.93a.4.4 0 0 0-.512-.068" transform="translate(-158.51 -157.252)"/><path d="M6.748 4.64a.55.544 0 0 1-.55.544.55.544 0 0 1-.55-.544.55.544 0 0 1 .55-.543.55.544 0 0 1 .55.543"/><path style="color:#000" d="M160.621 159.307a1.06 1.06 0 0 0-1.053 1.052v6.485c0 .576.477 1.051 1.053 1.05h.467a.397.397 0 0 0 .396-.396.397.397 0 0 0-.398-.396h-.465a.25.25 0 0 1-.258-.258v-6.485c0-.147.111-.257.258-.257h6.45a.397.397 0 0 0 .396-.399.397.397 0 0 0-.397-.396z" transform="translate(-158.51 -157.252)"/></svg>
