<svg id="open" xmlns="http://www.w3.org/2000/svg" viewBox="0 0 24 30" fill="none" width="24" height="30"><path fill-rule="evenodd" clip-rule="evenodd" d="M11.25 1.5a.75.75 0 0 0-.75.75v6h6.75A3.75 3.75 0 0 1 21 12h.75a.75.75 0 0 0 .75-.75v-9a.75.75 0 0 0-.75-.75zM21 3.439V3h-9v3.065l2.095-2.095a.75.75 0 0 1 1.06 0l2.657 2.657z" fill="#000"/><path d="M1.5 9.75A2.25 2.25 0 0 1 3.75 7.5h1.172a2.25 2.25 0 0 1 1.729.81l.975 1.17a.75.75 0 0 0 .577.27h9.047A2.25 2.25 0 0 1 19.5 12v8.25a2.25 2.25 0 0 1-2.25 2.25H3.75a2.25 2.25 0 0 1-2.25-2.25z" fill="#000"/></svg>
