<svg id="roller" xmlns="http://www.w3.org/2000/svg" viewBox="-1.091 -2.182 24 29.455" xml:space="preserve" width="24" height="29.455"><path d="M17.045 4.091h-.682v-.682a2.05 2.05 0 0 0-2.045-2.045H4.773c-1.125 0-2.046.92-2.046 2.045v2.727a2.05 2.05 0 0 0 2.045 2.045h9.545a2.05 2.05 0 0 0 2.045-2.045v-.681h.682c.375 0 .682.307.682.682v2.727a.684.684 0 0 1-.682.682h-6.136a2.05 2.05 0 0 0-2.045 2.045v.682c-.75 0-1.364.614-1.364 1.364v5.455c0 .75.614 1.364 1.364 1.364h1.364c.75 0 1.364-.614 1.364-1.364v-5.455c0-.75-.614-1.364-1.364-1.364v-.682c0-.375.307-.682.682-.682h6.136a2.05 2.05 0 0 0 2.045-2.045V6.136a2.05 2.05 0 0 0-2.045-2.045"/></svg>
