<svg xmlns="http://www.w3.org/2000/svg" viewBox="0 0 24 30" xml:space="preserve" width="24" height="30"><path d="M10.858 12.254c0 .629.514 1.142 1.142 1.142s1.142-.514 1.142-1.142-.514-1.14-1.142-1.14-1.142.511-1.142 1.14"/><path d="M20.057 1.709h-3.125a.565.565 0 0 0-.559-.509H7.627a.565.565 0 0 0-.559.509H2.249a.797.797 0 0 0-.794.794v19.502c0 .439.358.794.794.794h19.502a.795.795 0 0 0 .794-.794V4.195zm-12.413.187h8.712v5.148a.354.354 0 0 1-.355.355H7.999a.354.354 0 0 1-.355-.355zm7.178 13.181a3.993 3.993 0 0 1-5.645 0 4 4 0 0 1 0-5.645 4 4 0 0 1 5.645 0 4 4 0 0 1 0 5.645m3.648 7.027H5.53v-2.227c0-.17.139-.31.307-.31h12.326a.31.31 0 0 1 .307.31z"/><path d="M15.32 2.411h-1.725a.485.485 0 0 0-.484.484v3.39c0 .267.217.484.484.484h1.725a.485.485 0 0 0 .484-.484v-3.39a.485.485 0 0 0-.484-.484m.019 3.874a.02.02 0 0 1-.019.019h-1.725a.02.02 0 0 1-.019-.019v-3.39c0-.011.009-.019.019-.019h1.725q.018.002.019.019zm-1.683 6.911-.715.715a.41.41 0 0 0 0 .581l.384.384a.41.41 0 0 0 .581 0l.715-.715a.41.41 0 0 0 0-.581l-.384-.384a.41.41 0 0 0-.581 0"/></svg>
