<svg id="select" xmlns="http://www.w3.org/2000/svg" viewBox="0 0 24 30" width="24" height="30"><path d="M6.75 22.5c0-.41-.34-.75-.75-.75H5c-1.24 0-2.25-1.01-2.25-2.25v-1c0-.41-.34-.75-.75-.75s-.75.34-.75.75v1c0 2.07 1.68 3.75 3.75 3.75h1c.41 0 .75-.34.75-.75m16-16V5c0-2.07-1.68-3.75-3.75-3.75h-1c-.41 0-.75.34-.75.75s.34.75.75.75h1c1.24 0 2.25 1.01 2.25 2.25v1c0 .41.34.75.75.75s.75-.34.75-.75m-20 0V5c0-1.24 1.01-2.25 2.25-2.25h1c.41 0 .75-.34.75-.75s-.34-.75-.75-.75H5C2.93 1.25 1.25 2.93 1.25 5v1c0 .41.34.75.75.75s.75-.34.75-.75m20 13v-1c0-.41-.34-.75-.75-.75s-.75.34-.75.75v1c0 1.24-1.01 2.25-2.25 2.25h-1c-.41 0-.75.34-.75.75s.34.75.75.75h1c2.07 0 3.75-1.68 3.75-3.75m0-5v-4c0-.41-.34-.75-.75-.75s-.75.34-.75.75v4c0 .41.34.75.75.75s.75-.34.75-.75m-20 0v-4c0-.41-.34-.75-.75-.75s-.75.34-.75.75v4c0 .41.34.75.75.75s.75-.34.75-.75m12 8c0-.41-.34-.75-.75-.75h-4c-.41 0-.75.34-.75.75s.34.75.75.75h4c.41 0 .75-.34.75-.75m0-20c0-.41-.34-.75-.75-.75h-4c-.41 0-.75.34-.75.75s.34.75.75.75h4c.41 0 .75-.34.75-.75"/></svg>
