<svg id="shapes" xmlns="http://www.w3.org/2000/svg" data-name="Layer 1" viewBox="0 0 24 30" width="24" height="30"><path d="M14.357 2.66a11.6 11.6 0 0 1 1.739.13V.467H.461v15.635h2.323A11.7 11.7 0 0 1 14.358 2.659m6.648 9.109a1.02 1.02 0 0 0 .953.651 1 1 0 0 0 .372-.071 1.023 1.023 0 0 0 .581-1.325 9 9 0 0 0-1.147-2.085 1.023 1.023 0 1 0-1.651 1.21 7.2 7.2 0 0 1 .892 1.619m1.51 1.538h-.007a1.024 1.024 0 0 0-1.016 1.031v.028a7 7 0 0 1-.238 1.834 1.027 1.027 0 0 0 .728 1.252 1 1 0 0 0 .262.034 1.026 1.026 0 0 0 .99-.761 9.2 9.2 0 0 0 .305-2.359v-.043a1.024 1.024 0 0 0-1.024-1.016M19.625 8.05a1.023 1.023 0 0 0-.307-1.415 9 9 0 0 0-1.394-.733v2.28a7 7 0 0 1 .287.175 1.026 1.026 0 0 0 1.415-.307m1.937 10.278a1.026 1.026 0 0 0-1.431.225 7 7 0 0 1-1.271 1.344 1.024 1.024 0 1 0 1.294 1.588 9.2 9.2 0 0 0 1.634-1.727 1.024 1.024 0 0 0-.225-1.429m-4.995 2.819a7 7 0 0 1-1.817.339 1.024 1.024 0 0 0 .054 2.046h.058a9.2 9.2 0 0 0 2.34-.437 1.024 1.024 0 0 0-.635-1.947M8.176 17.93H5.894a9.2 9.2 0 0 0 1.042 1.843 1.024 1.024 0 0 0 1.655-1.206 7 7 0 0 1-.415-.637m3.983 3.224a7 7 0 0 1-1.668-.793 1.024 1.024 0 1 0-1.111 1.72 9.2 9.2 0 0 0 2.15 1.022 1.024 1.024 0 1 0 .629-1.949"/><path d="M16.096 5.346a9.186 9.186 0 0 0-10.922 9.018 9 9 0 0 0 .048.933q.039.409.117.806h10.757Zm-8.873 8.895q0-.109.006-.218a7.1 7.1 0 0 1 .54-2.399l2.617 2.617Zm7.012 0h-1.48l-4.126-4.126a7.2 7.2 0 0 1 1.466-1.47l4.14 4.14Zm0-3.825-2.634-2.634a7.1 7.1 0 0 1 2.634-.553Z"/></svg>
