<svg id="undo" xmlns="http://www.w3.org/2000/svg" data-name="Layer 1" viewBox="0 0 24 30" width="24" height="30"><path d="m17.597 18.418-.528 2.08-16.02-16.02.527-2.08L3.205.77l2.08-.528 16.02 16.02-2.08.528zm1.886 2.689.341-1.341.749-.749 1.341-.341a1 1 0 0 0 .101-.031l.911 2.823a.518.518 0 0 1-.652.652l-2.819-.911q.016-.05.029-.103M17.167 9.533l-1.415-1.412 2.537-2.537a1.66 1.66 0 0 0 .37-1.858 1.66 1.66 0 0 0-1.572-1.049h-6.779L8.309.679h8.778a3.65 3.65 0 0 1 3.42 2.284 3.64 3.64 0 0 1-.802 4.032Zm-8.238 5.414 1.412 1.412-2.494 2.494a1.703 1.703 0 0 0 1.202 2.907h9.086a2 2 0 0 0 .137.35 2.02 2.02 0 0 0 1.169 1.002l2.005.646H8.161a3.7 3.7 0 0 1-2.614-6.317Z"/></svg>
