<svg id="zoom" xmlns="http://www.w3.org/2000/svg" fill="currentColor" viewBox="0 0 24 30"><path d="m22.952 20.462-2.683-2.683a.69.69 0 0 0-.978 0l-1.386-1.389a.684.684 0 0 1-.078-.878 9.54 9.54 0 0 0 .649-9.854.997.997 0 0 0-1.591-.257l-.007.007a1.01 1.01 0 0 0-.168 1.18 7.517 7.517 0 1 1-3.211-3.212 1.01 1.01 0 0 0 1.18-.167l.007-.007a.995.995 0 0 0-.244-1.586 9.515 9.515 0 1 0 1.055 16.225.684.684 0 0 1 .878.078l1.389 1.386a.69.69 0 0 0 0 .978l2.629 2.629c.706.706 1.901.746 2.589.022a1.77 1.77 0 0 0-.031-2.473"/><path fill-rule="evenodd" d="M10.039 4.258a5.792 5.792 0 1 0 0 11.585 5.792 5.792 0 0 0 0-11.585m.761 5.077v-1.25a.75.75 0 1 0-1.5 0v1.25H8.05a.75.75 0 1 0 0 1.5H9.3v1.25a.75.75 0 1 0 1.5 0v-1.25h1.25a.75.75 0 1 0 0-1.5z"/></svg>
